<svg width="39" height="39" viewBox="0 0 39 39" fill="none" xmlns="http://www.w3.org/2000/svg">
<path d="M30.5434 9.82617C32.8042 10.1819 34.6584 11.2483 36.1078 13.0254C37.3831 14.5999 38.2528 16.5803 38.7159 18.9668C39.1225 21.1506 39.092 23.3337 38.6289 25.5176C37.9333 29.1228 36.5422 32.1445 34.4556 34.582C31.9624 37.5276 28.8329 39 25.0653 39C24.1373 39 23.124 38.7463 22.0219 38.2383C21.268 37.8323 20.428 37.6289 19.5 37.6289C18.572 37.6289 17.7328 37.8323 16.9781 38.2383C15.876 38.7463 14.8627 39 13.9347 39C10.1671 39 7.0376 37.5276 4.54442 34.582C2.45778 32.1445 1.06668 29.1228 0.371134 25.5176C-0.0919837 23.3337 -0.122452 21.1506 0.284082 18.9668C0.7472 16.5803 1.61685 14.5999 2.89217 13.0254C4.34159 11.2483 6.1958 10.1819 8.45655 9.82617C9.84764 9.62279 11.7602 9.80104 14.195 10.3594C16.2817 10.8674 18.0497 11.4768 19.4991 12.1875C20.9485 11.4768 22.7166 10.8674 24.8032 10.3594C27.2389 9.80104 29.1524 9.62279 30.5434 9.82617ZM25.7608 6.70312C24.9495 7.36354 23.8761 7.8457 22.5433 8.15039C21.6154 8.40404 20.6021 8.53125 19.5 8.53125L18.196 8.45508C18.0802 7.74439 18.0802 6.93164 18.196 6.01758C18.4284 4.18945 19.0943 2.79322 20.1955 1.82813C21.0069 1.16771 22.0802 0.685547 23.413 0.380859C24.341 0.127207 25.3543 0 26.4563 0L27.7604 0.0761719L27.8474 1.21875C27.8474 2.18385 27.7021 3.07201 27.4131 3.88477C27.0657 5.05248 26.5155 5.99244 25.7608 6.70312Z" fill="black"/>
</svg>
